<?xml version="1.0" ?><!DOCTYPE svg  PUBLIC '-//W3C//DTD SVG 1.1//EN'  'http://www.w3.org/Graphics/SVG/1.1/DTD/svg11.dtd'><svg enable-background="new 0 0 144.083 144" height="144px" id="SnapChat" version="1.1" viewBox="0 0 144.083 144" width="144.083px" xml:space="preserve" xmlns="http://www.w3.org/2000/svg" xmlns:xlink="http://www.w3.org/1999/xlink"><path d="M72.04,11.166c-33.543,0-60.833,27.29-60.833,60.834c0,33.545,27.29,60.834,60.833,60.834  c33.544,0,60.835-27.289,60.835-60.834C132.875,38.456,105.584,11.166,72.04,11.166z M72.04,126.834  c-30.235,0-54.833-24.598-54.833-54.834c0-30.235,24.598-54.834,54.833-54.834c30.237,0,54.835,24.599,54.835,54.834  C126.875,102.236,102.277,126.834,72.04,126.834z"/><path d="M105.148,86.711c-9.065-1.104-13.253-9.404-13.565-11.535c-0.151-1.033,0.854-1.383,1.446-1.498  c0.047-0.008,0.094-0.018,0.14-0.027c4.706-1.145,7.092-2.811,7.092-4.951c0-2.095-1.635-3.558-3.977-3.558  c-0.784,0-1.587,0.16-2.323,0.461c-0.27,0.11-0.766,0.242-1.601,0.242c-0.352,0-0.7-0.023-1.03-0.058  c0.37-1.894,0.737-5.061,0.737-10.168c0-6.779-3.149-11.836-9.109-14.624c-4.491-2.101-9.278-2.265-10.638-2.265l-0.23,0.003  l-0.326-0.003c-9.11,0-19.748,4.423-19.748,16.889c0,5.107,0.367,8.274,0.737,10.167c-0.33,0.036-0.679,0.059-1.03,0.059  c-0.835,0-1.332-0.132-1.601-0.242c-0.736-0.302-1.539-0.462-2.323-0.462c-2.342,0-3.977,1.463-3.977,3.558  c0,2.141,2.386,3.807,7.093,4.951c0.046,0.01,0.093,0.02,0.14,0.027c0.271,0.047,1.616,0.334,1.446,1.498  c-0.313,2.131-4.5,10.432-13.566,11.535c-1.047,0.127-1.815,1.045-1.755,2.1c0.254,4.463,4.732,5.701,9.653,6.359  c0.044,0.238,0.082,0.465,0.117,0.682c0.214,1.299,0.613,3.715,3.356,3.715c0.583,0,1.298-0.135,2.288-0.32  c1.292-0.244,2.898-0.549,4.331-0.549c1.322,0,1.945,0.258,2.236,0.475c0.401,0.299,0.821,0.652,1.273,1.031  c2.002,1.68,4.746,3.979,9.057,4.773c1.026,0.191,1.872,0.289,2.551,0.293h0.024c0.004,0,0.007,0,0.011,0  c0.646-0.004,1.491-0.102,2.511-0.293c4.316-0.795,7.059-3.094,9.062-4.773c0.452-0.379,0.872-0.732,1.274-1.031  c0.237-0.178,0.844-0.475,2.234-0.475c1.434,0,3.04,0.305,4.331,0.547c0.99,0.188,1.705,0.322,2.289,0.322  c2.742,0,3.142-2.414,3.355-3.713c0.036-0.217,0.074-0.445,0.118-0.684c4.922-0.66,9.4-1.896,9.652-6.361  C106.962,87.756,106.195,86.838,105.148,86.711z"/></svg>